<svg version="1.2" xmlns="http://www.w3.org/2000/svg" viewBox="0 0 741 741" width="1024" height="1024">
	<style>
		.s0 { fill: #000000 } 
	</style>
	<path id="Path 0" class="s0" d="m0-71v71h741v-142h-741zm0 882.5v70.5h741v-141h-741zm355.5-782.94c-3.3 0.83-8.48 2.92-11.5 4.62-3.02 1.71-6.85 4.12-8.5 5.36-1.65 1.23-4.89 4.66-7.2 7.6-2.31 2.95-5.52 8.06-7.13 11.36-1.61 3.3-5.03 13.2-7.6 22-2.57 8.8-5.52 18.7-6.55 22-1.03 3.3-4.63 15.9-8.01 28-3.37 12.1-6.97 24.7-7.98 28-1.02 3.3-3.5 11.63-5.51 18.5-2.01 6.88-6.14 19.93-9.18 29-3.04 9.08-8.34 22.35-11.76 29.5-3.43 7.15-8.26 16.15-10.75 20-2.48 3.85-7.22 10.38-10.53 14.5-3.31 4.13-9.12 10.22-12.91 13.55-3.79 3.32-8.69 7.4-10.89 9.06-2.2 1.65-7.6 5.29-12 8.09-4.4 2.79-18.35 10.37-31 16.84-12.65 6.47-25.7 13.66-29 15.97-3.3 2.32-7.61 6.19-9.58 8.6-1.98 2.41-4.74 6.42-6.14 8.89-1.41 2.48-3.38 6.98-4.4 10-1.29 3.85-1.83 8.35-1.81 15 0.03 7.34 0.58 11.09 2.42 16.5 1.39 4.06 4.31 9.5 6.95 12.97 2.51 3.28 7.09 8 10.19 10.5 3.09 2.49 13.44 8.52 23 13.4 9.55 4.88 21.19 10.92 25.87 13.43 4.68 2.51 11.87 6.81 16 9.55 4.12 2.75 10.65 7.55 14.5 10.67 3.85 3.12 9.93 8.82 13.5 12.66 3.57 3.84 9.4 11.22 12.95 16.4 3.55 5.18 8.58 13.7 11.17 18.92 2.59 5.23 5.69 11.98 6.9 15 1.2 3.03 3.67 9.78 5.49 15 1.82 5.23 5.56 16.7 8.31 25.5 2.76 8.8 7.55 24.78 10.65 35.5 3.11 10.73 7.84 26.93 10.51 36 2.68 9.08 6.93 23.81 9.45 32.75 2.51 8.94 5.64 18.39 6.95 21 1.31 2.61 4.09 7 6.19 9.75 2.09 2.75 5.63 6.67 7.87 8.72 2.23 2.04 6.54 5.05 9.56 6.69 3.02 1.64 8.43 3.73 12 4.66 4.88 1.26 8.62 1.53 15 1.06 6.56-0.49 10.1-1.36 15.5-3.85 3.85-1.77 9.25-4.88 12-6.92 2.75-2.03 6.56-5.65 8.47-8.03 1.91-2.38 4.98-7.25 6.82-10.83 1.84-3.57 4.02-8.97 4.84-12 0.82-3.02 2.79-10 4.36-15.5 1.58-5.5 5.36-18.55 8.4-29 3.05-10.45 8.5-29.12 12.12-41.5 3.61-12.37 7.45-25.54 8.53-29.25 1.08-3.71 4.71-14.51 8.07-24 3.36-9.49 8.51-22.2 11.45-28.25 2.93-6.05 7.22-13.92 9.53-17.5 2.3-3.57 6.76-9.65 9.91-13.5 3.15-3.85 8.94-10.04 12.86-13.75 3.93-3.71 10.4-9.04 14.39-11.84 3.99-2.8 11.3-7.48 16.25-10.4 4.95-2.92 17.77-9.76 28.5-15.19 10.73-5.44 21.52-11.27 24-12.96 2.48-1.69 6.71-5.5 9.41-8.47 2.7-2.96 6.38-8.54 8.18-12.39 1.8-3.85 3.75-10.04 4.34-13.75 0.73-4.63 0.76-8.94 0.07-13.75-0.55-3.85-1.92-9.59-3.05-12.75-1.12-3.16-4.05-8.56-6.5-12-2.45-3.44-6.81-8.02-9.7-10.17-2.89-2.16-16.05-9.52-29.25-16.35-13.2-6.84-28.09-15.08-33.1-18.33-5-3.24-11.08-7.21-13.5-8.81-2.42-1.59-8.67-7.22-13.9-12.5-5.23-5.27-12.25-13.64-15.6-18.59-3.36-4.95-8.02-12.6-10.35-17-2.34-4.4-5.36-10.7-6.71-14-1.36-3.3-4.63-11.85-7.28-19-2.66-7.15-6.72-19.75-9.03-28-2.32-8.25-5.29-18.37-6.6-22.5-1.31-4.12-5.28-17.62-8.81-30-3.53-12.37-8.1-28.12-10.15-35-2.06-6.87-4.52-15.42-5.48-19-0.96-3.57-3.15-9.87-4.87-14-1.72-4.12-5.34-10.42-8.03-14-3.25-4.3-7.22-8.01-11.75-10.97-3.76-2.46-9.32-5.31-12.34-6.33-3.02-1.03-9.1-2.04-13.5-2.26-5.13-0.26-10.16 0.14-14 1.12z"/>
</svg>